<?xml version="1.0"?>
<svg xmlns="http://www.w3.org/2000/svg" viewBox="0 0 512 512" width="512" height="512"><g id="Out_line" data-name="Out line"><path d="M240,344H128a24.0275,24.0275,0,0,1-24-24V186.61328a102.91935,102.91935,0,0,0,18.17773,6.11865C140.92578,197.419,165.72266,200,192,200c35.03687,0,72.01392-9.941,94.32275-17.19012l-21.269,37.22088A8.00423,8.00423,0,0,0,264,224v24h16V226.12451l30.94629-54.15527-.0188-.01068a7.95491,7.95491,0,0,0-3.91187-11.36872C304.54785,159.58594,245.96484,136,192,136c-26.27734,0-51.07422,2.58105-69.82227,7.26807C99.17969,149.01758,88,157.10742,88,168v.49768a65.87533,65.87533,0,0,0-56.709,53.20593L18.94531,287.54639a24.17768,24.17768,0,1,0,47.66016,8.13183L76.25781,232.937A19.84756,19.84756,0,0,1,88,217.665V320a40.04552,40.04552,0,0,0,40,40H240a40.1235,40.1235,0,0,0,9.99414-1.26074l-3.98828-15.49512A24.10787,24.10787,0,0,1,240,344ZM129.78809,157.90869C146.83789,154.09863,168.93164,152,192,152c31.89648,0,66.49707,9.14453,87.96191,16.00342C258.51367,174.86182,223.94043,184,192,184c-23.06836,0-45.16211-2.09863-62.21191-5.90869C111.3916,173.98,105.81836,169.54883,104.36035,168,105.81836,166.45117,111.3916,162.02,129.78809,157.90869Zm-69.34473,72.5957L50.791,293.24512a8.17654,8.17654,0,0,1-10.06543,6.68994,8.18743,8.18743,0,0,1-6.05371-9.44043l12.3457-65.84277A49.86657,49.86657,0,0,1,88,184.65472V200.882A35.74943,35.74943,0,0,0,60.44336,230.50439Z"/><path d="M184,328V224a8.00008,8.00008,0,0,0-8-8H152v16h16v16H152v16h16v16H152v16h16v32Z"/><rect x="120" y="216" width="16" height="16"/><rect x="120" y="248" width="16" height="16"/><rect x="120" y="280" width="16" height="16"/><path d="M483.40234,332.62646A69.3579,69.3579,0,0,0,424,280.46948V272c0-11.69238-15.61035-16.51367-27.35254-19.12305C382.49512,249.73193,363.79785,248,344,248c-40.2832,0-103.27148,15.57422-105.93359,16.2373a7.99523,7.99523,0,0,0-4.31079,12.75818l-.00269.00208L264,314.80615V400a40.04552,40.04552,0,0,0,40,40h80a40.04552,40.04552,0,0,0,40-40V329.50409a21.76844,21.76844,0,0,1,13.39648,15.65948l7.16895,32.26026A24.30775,24.30775,0,0,0,468.21,396.44531,24.3187,24.3187,0,0,0,491.81348,366.27ZM344,264c31.59668,0,52.5752,4.47754,60.93164,8-8.35644,3.52246-29.335,8-60.93164,8-19.44531,0-45.28125-4.02-66.09473-8C298.71875,268.02,324.55469,264,344,264Zm40,160H304a24.0275,24.0275,0,0,1-24-24V312a8.00033,8.00033,0,0,0-1.75293-4.99756L260.5293,284.85535C283.14453,289.62207,318.22119,296,344,296c19.79785,0,38.49512-1.73193,52.64746-4.877A94.96243,94.96243,0,0,0,408,287.955V400A24.0275,24.0275,0,0,1,384,424Zm86.27051-43.814a8.27535,8.27535,0,0,1-10.08594-6.23292l-7.16895-32.26025A37.65417,37.65417,0,0,0,424,312.83575V296.60718a53.38642,53.38642,0,0,1,43.88086,39.90014l8.41113,33.64307A8.28535,8.28535,0,0,1,470.27051,380.186Z"/><path d="M328,336v64h16V376h16V360H344V344h16V328H336A8.00008,8.00008,0,0,0,328,336Z"/><rect x="376" y="328" width="16" height="16"/><rect x="376" y="360" width="16" height="16"/><path d="M153.49023,52.6499,192,106.564V128h16V104a7.99606,7.99606,0,0,0-1.49023-4.6499L184.97388,69.2C212.03442,81.0672,254.355,96,296,96c32.89062,0,63.92383-4.30664,87.38281-12.12646,10.6875-3.56244,18.67774-7.46027,24.61719-11.447V240a48.71618,48.71618,0,0,1-.48633,6.86621l15.83789,2.26758A64.58514,64.58514,0,0,0,424,240V97.665a19.84756,19.84756,0,0,1,11.74219,15.272l9.65234,62.7417a24.17772,24.17772,0,1,0,47.66016-8.13232L480.709,101.70361A65.87533,65.87533,0,0,0,424,48.49768V48c0-10.189-7.04688-24.68359-40.61719-35.87354C359.92383,4.30664,328.89062,0,296,0,228.37109,0,158.94141,39.38428,156.01953,41.06055A7.97478,7.97478,0,0,0,153.501,52.64233Zm311.49219,52.002,12.3457,65.84277a8.18743,8.18743,0,0,1-6.05371,9.44043,8.17665,8.17665,0,0,1-10.06543-6.68945l-9.65234-62.7417A35.74922,35.74922,0,0,0,424,80.882V64.65472A49.86657,49.86657,0,0,1,464.98242,104.65186ZM296,16c68.36914,0,112,18.95264,112,32S364.36914,80,296,80c-46.49707,0-95.55566-20.80273-118.59277-32C200.44434,36.80273,249.50293,16,296,16Z"/><path d="M352,136V120H328a8.00008,8.00008,0,0,0-8,8V232h16V200h16V184H336V168h16V152H336V136Z"/><rect x="368" y="120" width="16" height="16"/><rect x="368" y="152" width="16" height="16"/><rect x="368" y="184" width="16" height="16"/></g></svg>
